HIERARCHY
ROOT Hips
{
	OFFSET 0.00000 0.00000 0.00000
	CHANNELS 6 Xposition Yposition Zposition Zrotation Yrotation Xrotation 
	JOINT LHipJoint
	{
		OFFSET 0 0 0
		CHANNELS 3 Zrotation Yrotation Xrotation
		JOINT LeftUpLeg
		{
			OFFSET 1.29432 -1.88279 0.59910
			CHANNELS 3 Zrotation Yrotation Xrotation
			JOINT LeftLeg
			{
				OFFSET 2.63039 -7.22694 0.00000
				CHANNELS 3 Zrotation Yrotation Xrotation
				JOINT LeftFoot
				{
					OFFSET 2.70674 -7.43672 0.00000
					CHANNELS 3 Zrotation Yrotation Xrotation
					JOINT LeftToeBase
					{
						OFFSET 0.15066 -0.41394 2.09027
						CHANNELS 3 Zrotation Yrotation Xrotation
						End Site
						{
							OFFSET 0.00000 -0.00000 1.07518
						}
					}
				}
			}
		}
	}
	JOINT RHipJoint
	{
		OFFSET 0 0 0
		CHANNELS 3 Zrotation Yrotation Xrotation
		JOINT RightUpLeg
		{
			OFFSET -1.37068 -1.88279 0.59910
			CHANNELS 3 Zrotation Yrotation Xrotation
			JOINT RightLeg
			{
				OFFSET -2.57023 -7.06166 0.00000
				CHANNELS 3 Zrotation Yrotation Xrotation
				JOINT RightFoot
				{
					OFFSET -2.76461 -7.59570 0.00000
					CHANNELS 3 Zrotation Yrotation Xrotation
					JOINT RightToeBase
					{
						OFFSET -0.24175 -0.64785 2.19719
						CHANNELS 3 Zrotation Yrotation Xrotation
						End Site
						{
							OFFSET -0.00000 -0.00000 1.14803
						}
					}
				}
			}
		}
	}
	JOINT LowerBack
	{
		OFFSET 0 0 0
		CHANNELS 3 Zrotation Yrotation Xrotation
		JOINT Spine
		{
			OFFSET -0.03138 2.03983 -0.23106
			CHANNELS 3 Zrotation Yrotation Xrotation
			JOINT Spine1
			{
				OFFSET -0.00325 2.06238 -0.06878
				CHANNELS 3 Zrotation Yrotation Xrotation
				JOINT Neck
				{
					OFFSET 0 0 0
					CHANNELS 3 Zrotation Yrotation Xrotation
					JOINT Neck1
					{
						OFFSET -0.00002 1.75318 0.18090
						CHANNELS 3 Zrotation Yrotation Xrotation
						JOINT Head
						{
							OFFSET 0.08806 1.75856 -0.25387
							CHANNELS 3 Zrotation Yrotation Xrotation
							End Site
							{
								OFFSET 0.02554 1.78597 -0.10684
							}
						}
					}
				}
				JOINT LeftShoulder
				{
					OFFSET 0 0 0
					CHANNELS 3 Zrotation Yrotation Xrotation
					JOINT LeftArm
					{
						OFFSET 3.09657 1.33597 -0.04414
						CHANNELS 3 Zrotation Yrotation Xrotation
						JOINT LeftForeArm
						{
							OFFSET 5.34298 -0.00000 -0.00000
							CHANNELS 3 Zrotation Yrotation Xrotation
							JOINT LeftHand
							{
								OFFSET 3.67262 -0.00000 -0.00000
								CHANNELS 3 Zrotation Yrotation Xrotation
								JOINT LeftFingerBase
								{
									OFFSET 0 0 0
									CHANNELS 3 Zrotation Yrotation Xrotation
									JOINT LeftHandIndex1
									{
										OFFSET 0.59930 -0.00000 -0.00000
										CHANNELS 3 Zrotation Yrotation Xrotation
										End Site
										{
											OFFSET 0.48317 -0.00000 -0.00000
										}
									}
								}
								JOINT LThumb
								{
									OFFSET 0 0 0
									CHANNELS 3 Zrotation Yrotation Xrotation
									End Site
									{
										OFFSET 0.49055 -0.00000 0.49055
									}
								}
							}
						}
					}
				}
				JOINT RightShoulder
				{
					OFFSET 0 0 0
					CHANNELS 3 Zrotation Yrotation Xrotation
					JOINT RightArm
					{
						OFFSET -3.16460 1.32273 -0.23382
						CHANNELS 3 Zrotation Yrotation Xrotation
						JOINT RightForeArm
						{
							OFFSET -5.54967 -0.01834 0.03348
							CHANNELS 3 Zrotation Yrotation Xrotation
							JOINT RightHand
							{
								OFFSET -3.69401 -0.00000 0.00000
								CHANNELS 3 Zrotation Yrotation Xrotation
								JOINT RightFingerBase
								{
									OFFSET 0 0 0
									CHANNELS 3 Zrotation Yrotation Xrotation
									JOINT RightHandIndex1
									{
										OFFSET -0.63811 -0.00000 0.00000
										CHANNELS 3 Zrotation Yrotation Xrotation
										End Site
										{
											OFFSET -0.51446 -0.00000 0.00000
										}
									}
								}
								JOINT RThumb
								{
									OFFSET 0 0 0
									CHANNELS 3 Zrotation Yrotation Xrotation
									End Site
									{
										OFFSET -0.52232 -0.00000 0.52232
									}
								}
							}
						}
					}
				}
			}
		}
	}
}
MOTION
Frames: 9
Frame Time: .0083333
9.0545 16.2926 15.4406 0 0 0 0 0 0 -21 0 0 0 0 0 0 0 0 0 0 0 0 0 0 21 0 0 0 0 0 0 0 0 0 0 0 0 0 0 0 0 0 0 0 0 0 0 -16 0 0 21 0 0 11 0 0 0 -8 0 0 0 0 0 0 0 0 0 0 0 0 0 0 0 0 0 0 0 0 8 0 0 0 0 0 0 0 0 0 0 0 0 0 0 0 0 0
9.0545 16.2926 15.4406 171.8870 -7.6752 -155.2240 0.0000 0.0000 0.0000 -4.9466 -11.3574 -65.4781 5.3264 13.7422 42.2145 -0.0191 -3.0733 3.0942 0.5080 -4.5688 -12.6827 0.0000 0.0000 0.0000 -14.4294 12.2928 -67.3617 -15.1647 -19.4300 75.7322 -0.5044 3.7109 -12.6618 -1.0846 6.6191 -18.5916 4.2922 3.4463 38.1047 1.9157 3.6866 8.7784 -1.4908 0.6627 -8.7448 -5.2931 -3.6149 -12.2623 -0.8058 -5.8103 -12.9452 0.5295 -3.3465 -1.9744 0.0000 0.0000 0.0000 -100.3083 -49.3753 84.6907 62.3530 -56.9050 -36.3058 -0.0000 -0.0000 29.7575 53.2242 45.4606 43.6399 -7.1250 0.0000 -0.0000 85.4430 84.7903 80.2095 0.0000 0.0000 0.0000 -37.0871 74.5414 -90.3444 -94.8161 59.9122 -64.1696 0.0000 -0.0000 -6.3687 -34.9829 32.0617 -20.3778 7.1250 -0.0000 -0.0000 -1.7252 7.4028 -1.9339
8.9480 16.2987 15.4019 172.2240 -7.8656 -155.0850 0.0000 0.0000 0.0000 -4.8413 -11.3908 -66.3453 5.6324 14.0624 43.4880 -0.0269 -3.3521 2.9989 0.3295 -3.6894 -10.2046 0.0000 0.0000 0.0000 -14.2194 11.5676 -67.2850 -15.1570 -19.4281 75.7092 -0.4763 4.8846 -12.2858 -0.9336 6.1548 -17.2342 4.9880 3.0663 38.0755 2.0136 3.5151 8.6394 -1.6814 0.5792 -8.8500 -5.5456 -3.5422 -12.0104 -0.7628 -5.7089 -13.0686 0.5964 -3.2836 -2.0511 -0.0000 -0.0000 0.0000 -100.0327 -48.7979 84.6144 63.0636 -57.0725 -36.9016 -0.0000 -0.0000 29.6082 52.6847 44.0304 42.3606 -7.1250 0.0000 -0.0000 70.7885 83.9992 64.9971 -0.0000 -0.0000 0.0000 -36.9149 74.4696 -89.4657 -94.9279 59.9080 -64.2663 0.0000 -0.0000 -6.2499 -36.4524 32.2273 -21.5005 7.1250 -0.0000 -0.0000 -2.4881 8.0753 -2.8154
8.8528 16.2499 15.3527 172.5920 -7.1096 -154.9150 0.0000 0.0000 0.0000 -4.8888 -10.6719 -67.4283 6.0402 14.4672 45.1430 -0.0426 -3.8146 2.5339 0.3117 -3.5894 -9.9243 0.0000 0.0000 0.0000 -14.4916 11.4487 -67.8441 -15.1809 -19.4338 75.7809 -0.4239 5.9902 -11.6984 -0.8341 5.8263 -16.2813 4.8949 3.2852 38.0754 1.9167 3.7549 8.5905 -1.8309 0.6935 -8.8938 -5.2557 -3.3749 -12.0271 -1.0018 -5.5563 -13.2031 0.4799 -3.2231 -2.1097 -0.0000 -0.0000 0.0000 -99.7421 -48.4786 84.8997 64.1988 -57.3288 -37.8559 -0.0000 -0.0000 29.5107 52.0814 43.5837 41.5088 -7.1250 0.0000 -0.0000 64.1912 83.7235 58.3800 -0.0000 -0.0000 0.0000 -37.2943 74.1717 -89.5728 -94.8692 59.9102 -64.2156 0.0000 -0.0000 -5.9091 -37.6342 32.9435 -22.7487 7.1250 -0.0000 -0.0000 -2.9472 9.2663 -3.3874
8.7608 16.2000 15.2961 172.5030 -6.3484 -154.8380 0.0000 0.0000 0.0000 -5.5074 -10.0285 -68.1860 6.3881 14.7942 46.5201 -0.0621 -4.4304 1.9968 0.3248 -3.6631 -10.1306 0.0000 0.0000 0.0000 -15.1145 11.0469 -68.0287 -15.1237 -19.4201 75.6091 -0.3673 7.1706 -11.1691 -0.7194 5.4199 -15.1102 4.5078 3.5338 38.2761 1.7958 3.9221 8.5271 -1.8299 0.7712 -9.0483 -5.2987 -3.3323 -12.1311 -1.0199 -5.4791 -13.0754 0.4774 -3.1826 -2.0514 0.0000 0.0000 0.0000 -99.6272 -47.8024 85.2888 65.7092 -57.6487 -39.1296 -0.0000 -0.0000 29.5765 52.8394 43.7239 42.3618 -7.1250 0.0000 -0.0000 69.8677 83.7554 63.8647 0.0000 0.0000 0.0000 -37.3402 73.7909 -89.2356 -94.9338 59.9078 -64.2715 0.0000 -0.0000 -5.7538 -37.4526 32.8460 -22.5615 7.1250 -0.0000 -0.0000 -2.8745 9.0956 -3.2966
8.6697 16.2006 15.2462 172.4990 -5.6971 -154.7430 0.0000 0.0000 0.0000 -5.7178 -9.8262 -68.6104 6.6760 15.0528 47.6379 -0.0684 -4.6711 1.0823 0.3558 -3.8322 -10.6051 0.0000 0.0000 0.0000 -15.4908 10.6645 -67.9117 -14.9642 -19.3808 75.1288 -0.3116 8.2214 -10.7258 -0.7670 5.5925 -15.6066 4.1659 3.6626 38.3505 1.7751 3.9692 8.4357 -1.6979 0.7945 -9.2006 -5.6226 -3.2524 -11.8988 -0.9367 -5.3438 -13.1106 0.5663 -3.0972 -2.0942 -0.0000 0.0000 0.0000 -99.4642 -47.3482 85.2971 66.6221 -57.8307 -39.9016 -0.0000 -0.0000 29.3836 53.7941 43.7339 43.3606 -7.1250 0.0000 -0.0000 75.9719 83.6084 69.6508 -0.0000 0.0000 0.0000 -38.1383 73.7049 -89.3378 -94.7466 59.9147 -64.1095 0.0000 -0.0000 -5.0082 -38.8351 33.1199 -23.7429 7.1250 -0.0000 -0.0000 -3.5447 9.8990 -4.1085
8.5749 16.2058 15.1997 172.9000 -5.3922 -154.6040 0.0000 0.0000 0.0000 -5.4753 -9.7215 -69.0058 6.9009 15.2479 48.4985 -0.0690 -4.8337 0.3780 0.3818 -3.9683 -10.9874 0.0000 0.0000 0.0000 -15.4050 10.3348 -67.7980 -14.8022 -19.3395 74.6401 -0.2616 9.1523 -10.4010 -0.8409 5.8493 -16.3479 4.4723 3.6029 38.2315 1.7886 4.0107 8.4195 -1.8556 0.8122 -9.1519 -5.5995 -3.2482 -11.7033 -0.9740 -5.3863 -13.3431 0.5603 -3.1229 -2.2047 -0.0000 -0.0000 0.0000 -99.2750 -48.1064 85.7915 66.6535 -57.8368 -39.9282 -0.0000 -0.0000 28.1290 54.7759 43.6623 44.3580 -7.1250 0.0000 -0.0000 81.4652 83.3452 74.7835 -0.0000 -0.0000 0.0000 -38.6892 73.5004 -89.3652 -94.7827 59.9134 -64.1407 0.0000 -0.0000 -4.2254 -40.9128 34.1018 -25.9143 7.1250 -0.0000 -0.0000 -4.3730 11.7724 -5.1867
8.4824 16.2003 15.1527 173.5340 -5.2083 -154.5450 0.0000 0.0000 0.0000 -4.9957 -9.6031 -69.2369 7.0660 15.3872 49.1236 -0.0630 -4.8349 -0.2549 0.4131 -4.1256 -11.4302 0.0000 0.0000 0.0000 -15.0750 10.0610 -67.5743 -14.6243 -19.2926 74.1025 -0.2160 10.1251 -10.2247 -0.8114 5.7483 -16.0559 5.1162 3.5384 38.3056 1.8425 4.1725 8.4084 -2.1932 0.8726 -9.1294 -5.4733 -3.3572 -11.8683 -1.0663 -5.5558 -13.3052 0.5021 -3.2212 -2.1678 -0.0000 -0.0000 0.0000 -99.1006 -45.9854 86.1196 69.2120 -58.3025 -42.0997 -0.0000 -0.0000 29.0944 56.2575 43.4306 45.8236 -7.1250 0.0000 -0.0000 88.3173 82.7915 81.0409 -0.0000 -0.0000 0.0000 -38.2256 73.0761 -88.6245 -95.9194 59.8672 -65.1240 0.0000 -0.0000 -4.7397 -39.5889 34.1189 -24.8839 7.1250 -0.0000 -0.0000 -3.6723 11.2666 -4.3270
8.3951 16.1852 15.1023 173.8430 -4.8844 -154.4670 0.0000 0.0000 0.0000 -4.9552 -9.4123 -69.4989 7.2345 15.5262 49.7556 -0.0581 -4.9446 -0.8504 0.4597 -4.3492 -12.0612 0.0000 0.0000 0.0000 -15.1016 9.6607 -67.3553 -14.4605 -19.2478 73.6060 -0.1784 11.0302 -10.1900 -0.9543 6.2207 -17.4263 5.3609 3.5034 38.4869 1.8277 4.2347 8.3284 -2.3640 0.8912 -9.2542 -5.4666 -3.3447 -12.1809 -1.1836 -5.5097 -12.9853 0.4499 -3.2022 -2.0154 -0.0000 -0.0000 0.0000 -99.0238 -44.5203 86.3945 70.9236 -58.5793 -43.5582 -0.0000 -0.0000 29.7144 57.7395 43.6226 47.5439 -7.1250 0.0000 -0.0000 89.5469 -82.3903 -97.2203 -0.0000 -0.0000 0.0000 -38.2984 72.8678 -88.4145 -97.1248 59.8073 -66.1662 0.0000 -0.0000 -5.2151 -37.2666 33.1865 -22.6106 7.1250 -0.0000 -0.0000 -2.6870 9.3965 -3.0928
